<svg id="Layer_1" data-name="Layer 1" xmlns="http://www.w3.org/2000/svg" viewBox="0 0 512 512"><defs><style>.cls-1{fill:#4f5365;}</style></defs><title>broz-cardWallet</title><path class="cls-1" d="M458,70.28H52.5a50.1,50.1,0,0,0-50,50.05V390.67A50.1,50.1,0,0,0,52.5,440.72H458a50.1,50.1,0,0,0,50.05-50.05V120.33A50.1,50.1,0,0,0,458,70.28Zm-405.5,10H458a40.1,40.1,0,0,1,40.05,40.05v85.11H12.45V120.33A40.1,40.1,0,0,1,52.5,80.28ZM458,430.72H52.5a40.1,40.1,0,0,1-40-40.05V215.44h485.6V390.67A40.1,40.1,0,0,1,458,430.72Z"/></svg>