<svg id="Layer_1" data-name="Layer 1" xmlns="http://www.w3.org/2000/svg" viewBox="0 0 512 512"><defs><style>.cls-1{fill:#4e5264;}</style></defs><title>broz-shop</title><path class="cls-1" d="M105.36,466.1a42.84,42.84,0,0,1-42.61-42.63V246.9l5.77.9a106.12,106.12,0,0,0,14.67,1.26h.25a107.65,107.65,0,0,0,36.41-6.34l6.68-2.39V348.59H385.42v-110l6.72,2.45c10.83,4,23.65,8,36.66,8h.06a112,112,0,0,0,14.56-1.2l5.74-.85V423.46a42.88,42.88,0,0,1-42.63,42.64ZM72.75,258.44v165a32.81,32.81,0,0,0,32.62,32.64H406.52a32.85,32.85,0,0,0,32.64-32.66v-165c-3.4.34-6.82.53-10.22.59h-.07c-11.89,0-23.6-3-33.45-6.25V358.59H116.53V254.31a117.77,117.77,0,0,1-33.15,4.75H83.1Q77.9,259,72.75,258.44Z"/><path class="cls-1" d="M482.6,160.41,435,35.92H315.81v0H196.17v0H76.93L29.48,160.14l-.08.21a47.06,47.06,0,0,0-2.4,15c0,32.36,33.14,58.69,73.92,58.78,2,.17,3.9.25,5.84.25a70.82,70.82,0,0,0,67.8-50.9l1.86-6.39h-.88l19.14-127L182,171.47l0,.52c0,.45,0,.9-.05,1.35,0,.64-.06,1.3-.06,2,0,29.35,27.27,53.74,62.76,58.09l-.71.71H256c40.88,0,74.14-26.36,74.14-58.78a30.52,30.52,0,0,0-.16-3.76L317.28,50l20,132.62.13.62a70.55,70.55,0,0,0,67.75,51.21c2,0,3.94-.09,5.92-.25,40.78-.1,73.92-26.43,73.92-58.78A48,48,0,0,0,482.6,160.41ZM164.82,181.16a60.75,60.75,0,0,1-63.26,43l-.43,0C65.77,224.14,37,202.26,37,175.35a37.22,37.22,0,0,1,1.86-11.75l45-117.66H185.2Zm155.3-5.8c0,26.41-27.74,48-62.22,48.76H256c-35.37,0-64.14-21.88-64.14-48.78,0-.53,0-1,0-1.51s.05-1,.06-1.56L205.18,45.9H306.8L320,172.7A22.1,22.1,0,0,1,320.12,175.36Zm90.75,48.83-.44,0a60.51,60.51,0,0,1-63.31-43.41L326.78,45.92H428.12l45,117.79v0A38.27,38.27,0,0,1,475,175.41C475,202.3,446.23,224.19,410.87,224.19Z"/></svg>