<svg id="Layer_1" data-name="Layer 1" xmlns="http://www.w3.org/2000/svg" viewBox="0 0 512 512"><defs><style>.cls-1{fill:#4e5264;}</style></defs><title>broz-offer</title><path class="cls-1" d="M43.22,10.11c-15.6,9.26-20.6,38.53-15.28,89.49l0,.29c.31,2.11,7.8,51,33.72,68.86L50.27,265.08A32.45,32.45,0,0,0,59.6,292L262.85,495.25a32.64,32.64,0,0,0,46.16,0L476.55,327.71a32.41,32.41,0,0,0,9.56-23.08v-.14a32.41,32.41,0,0,0-9.75-23.14L269.43,77.88a53,53,0,0,0-47.19-14.26l-97.09,18.7C117,61.42,106.27,41.21,92.62,28.74,89,24.93,62.8-1.49,43.22,10.11Zm181.23,65a41.34,41.34,0,0,1,36.8,11.12L468.18,289.67a21,21,0,0,1,.12,29.79L300.77,487a21,21,0,0,1-29.67,0L67.85,283.75A20.84,20.84,0,0,1,61.71,269a23.61,23.61,0,0,1,.14-2.51L79.48,117.88A20.89,20.89,0,0,1,96.34,99.76l22.44-4.33c3.88,10.95,7.08,21.9,9.63,31.7a32.64,32.64,0,1,0,10.94-1.89h-.61c-2.5-9.76-5.65-20.71-9.51-31.83Zm-102,95.2L141,168.06a6.17,6.17,0,0,0,5.36-7.1c-.19-1.19-1.72-10.53-4.79-23.93a21,21,0,1,1-19.13,33.25Zm12.66-13.47-16.75.92a21,21,0,0,1,12.85-19.19C133,146.12,134.3,152.46,135.13,156.81ZM85.81,37.66l.3.29c11.63,10.56,21.07,27.93,28.49,46.41L94.14,88.3a32.53,32.53,0,0,0-26.25,28.21l-4.63,39C44.88,138.78,38.53,100.49,38.14,98,32,39.42,41.64,24.43,47.91,20.7,59.41,13.87,79.17,30.63,85.81,37.66Z"/></svg>